<svg width="256" height="256" viewBox="0 0 256 256" fill="none" xmlns="http://www.w3.org/2000/svg">
  <!-- Astronaut Body -->
  <path d="M128 256c70.692 0 128-57.308 128-128S198.692 0 128 0 0 57.308 0 128s57.308 128 128 128z" fill="#fff"/>
  <path d="M88 96h80v112H88z" fill="#fff"/>
  
  <!-- Helmet -->
  <path d="M88 96c0-22.091 17.909-40 40-40s40 17.909 40 40v16H88V96z" fill="#fff"/>
  <path d="M96 104c0-17.673 14.327-32 32-32s32 14.327 32 32v8H96v-8z" fill="#001B42"/>
  
  <!-- Backpack -->
  <path d="M168 144h24v48h-24z" fill="#FF4D4D"/>
  
  <!-- Cord -->
  <path d="M180 192c0 0-8 32-52 32s-52-32-52-32" stroke="#001B42" stroke-width="4"/>
  
  <!-- Details -->
  <circle cx="128" cy="144" r="8" fill="#001B42"/>
  <rect x="120" y="160" width="16" height="4" fill="#001B42"/>
</svg> 